<?xml version="1.0"?>
<svg width="202" height="40" xmlns="http://www.w3.org/2000/svg" xmlns:svg="http://www.w3.org/2000/svg">
 <g class="layer">
  <title>Layer 1</title>
  <path class="ccustom" clip-rule="evenodd" d="m25.56,11.69c-1.65,-1.1 -3.58,-1.69 -5.56,-1.69l0,-10c3.96,0 7.82,1.17 11.11,3.37c3.29,2.2 5.85,5.32 7.37,8.98c1.51,3.65 1.91,7.67 1.14,11.55c-0.78,3.88 -2.68,7.45 -5.48,10.24c-2.79,2.8 -6.36,4.7 -10.24,5.48c-3.88,0.77 -7.9,0.37 -11.55,-1.14c-3.66,-1.52 -6.78,-4.08 -8.98,-7.37c-2.2,-3.29 -3.37,-7.15 -3.37,-11.11l10,0c0,1.98 0.59,3.91 1.69,5.56c1.09,1.64 2.66,2.92 4.48,3.68c1.83,0.76 3.84,0.95 5.78,0.57c1.94,-0.39 3.72,-1.34 5.12,-2.74c1.4,-1.4 2.35,-3.18 2.74,-5.12c0.38,-1.94 0.19,-3.95 -0.57,-5.78c-0.76,-1.82 -2.04,-3.39 -3.68,-4.48z" fill="#ffffff" fill-rule="evenodd" id="svg_1"/>
  <path class="ccustom" clip-rule="evenodd" d="m10,0c0,1.31 -0.26,2.61 -0.76,3.83c-0.5,1.21 -1.24,2.31 -2.17,3.24c-0.93,0.93 -2.03,1.67 -3.24,2.17c-1.22,0.5 -2.52,0.76 -3.83,0.76l0,10c2.63,0 5.23,-0.52 7.65,-1.52c2.43,-1.01 4.64,-2.48 6.49,-4.34c1.86,-1.85 3.33,-4.06 4.34,-6.49c1,-2.42 1.52,-5.02 1.52,-7.65l-10,0z" fill="#ffffff" fill-rule="evenodd" id="svg_2"/>
  <path class="ccustom" d="m125.62,14.45l-4.85,0l0,15.41l4.85,0l0,-15.41z" fill="#ffffff" id="svg_3"/>
  <path class="ccustom" d="m121.31,11.57c0.5,0.5 1.14,0.76 1.9,0.76c0.76,0 1.38,-0.26 1.87,-0.76c0.49,-0.53 0.73,-1.17 0.73,-1.91c0,-0.76 -0.24,-1.39 -0.73,-1.9c-0.49,-0.51 -1.11,-0.76 -1.87,-0.76c-0.76,0 -1.4,0.25 -1.9,0.76c-0.49,0.51 -0.73,1.14 -0.73,1.9c0,0.74 0.24,1.38 0.73,1.91z" fill="#ffffff" id="svg_4"/>
  <path class="ccustom" d="m51.16,29.86l0,-22.38l4.98,0l0,18.01l9.92,0l0,4.37l-14.9,0z" fill="#ffffff" id="svg_5"/>
  <path class="ccustom" clip-rule="evenodd" d="m75.03,30.21c-1.59,0 -3.03,-0.35 -4.32,-1.04c-1.26,-0.72 -2.27,-1.69 -3.01,-2.92c-0.74,-1.23 -1.11,-2.6 -1.11,-4.12c0,-1.53 0.37,-2.89 1.11,-4.09c0.74,-1.21 1.75,-2.16 3.01,-2.86c1.27,-0.72 2.71,-1.08 4.32,-1.08c1.6,0 3.04,0.35 4.31,1.05c1.27,0.7 2.27,1.66 3.01,2.89c0.74,1.2 1.11,2.56 1.11,4.09c0,1.52 -0.37,2.89 -1.11,4.12c-0.74,1.23 -1.74,2.2 -3.01,2.92c-1.27,0.69 -2.71,1.04 -4.31,1.04zm0,-4.4c0.7,0 1.31,-0.15 1.84,-0.45c0.53,-0.32 0.93,-0.75 1.2,-1.3c0.3,-0.57 0.45,-1.21 0.45,-1.93c0,-0.72 -0.15,-1.35 -0.45,-1.87c-0.29,-0.55 -0.71,-0.98 -1.24,-1.27c-0.5,-0.32 -1.1,-0.48 -1.8,-0.48c-0.68,0 -1.28,0.16 -1.81,0.48c-0.53,0.29 -0.94,0.72 -1.24,1.27c-0.29,0.55 -0.44,1.18 -0.44,1.9c0,0.7 0.15,1.33 0.44,1.9c0.3,0.55 0.71,0.98 1.24,1.3c0.53,0.3 1.13,0.45 1.81,0.45z" fill="#ffffff" fill-rule="evenodd" id="svg_6"/>
  <path class="ccustom" clip-rule="evenodd" d="m87.31,35.89c1.29,0.59 2.78,0.89 4.47,0.89c1.65,0 3.12,-0.33 4.41,-0.98c1.28,-0.66 2.3,-1.57 3.04,-2.73c0.74,-1.16 1.11,-2.54 1.11,-4.12l0,-14.5l-4.76,0l0,1.04c-0.35,-0.3 -0.75,-0.55 -1.2,-0.75c-0.83,-0.4 -1.77,-0.6 -2.82,-0.6c-1.42,0 -2.68,0.33 -3.78,1.01c-1.1,0.66 -1.96,1.56 -2.6,2.73c-0.63,1.14 -0.95,2.43 -0.95,3.87c0,1.41 0.32,2.7 0.95,3.87c0.64,1.16 1.5,2.08 2.6,2.75c1.1,0.68 2.36,1.02 3.78,1.02c1.03,0 1.97,-0.2 2.82,-0.6c0.41,-0.2 0.78,-0.43 1.11,-0.69l0,0.97c0,1.08 -0.35,1.92 -1.05,2.51c-0.68,0.59 -1.62,0.89 -2.82,0.89c-0.97,0 -1.81,-0.17 -2.51,-0.51c-0.67,-0.34 -1.29,-0.84 -1.84,-1.49l-2.98,2.98c0.74,1.06 1.75,1.87 3.02,2.44zm6.91,-11.26c-0.49,0.3 -1.07,0.45 -1.75,0.45c-0.67,0 -1.26,-0.15 -1.77,-0.45c-0.49,-0.29 -0.87,-0.7 -1.14,-1.2c-0.28,-0.53 -0.42,-1.09 -0.42,-1.68c0,-0.64 0.14,-1.21 0.42,-1.72c0.27,-0.5 0.66,-0.91 1.17,-1.2c0.51,-0.3 1.09,-0.45 1.74,-0.45c0.68,0 1.26,0.15 1.75,0.45c0.51,0.29 0.89,0.7 1.14,1.2c0.28,0.51 0.41,1.08 0.41,1.72c0,0.63 -0.13,1.2 -0.41,1.71c-0.25,0.49 -0.63,0.88 -1.14,1.17z" fill="#ffffff" fill-rule="evenodd" id="svg_7"/>
  <path class="ccustom" clip-rule="evenodd" d="m110.55,30.21c-1.58,0 -3.02,-0.35 -4.31,-1.04c-1.27,-0.72 -2.27,-1.69 -3.02,-2.92c-0.74,-1.23 -1.11,-2.6 -1.11,-4.12c0,-1.53 0.37,-2.89 1.11,-4.09c0.75,-1.21 1.75,-2.16 3.02,-2.86c1.27,-0.72 2.7,-1.08 4.31,-1.08c1.61,0 3.04,0.35 4.31,1.05c1.27,0.7 2.28,1.66 3.02,2.89c0.74,1.2 1.11,2.56 1.11,4.09c0,1.52 -0.37,2.89 -1.11,4.12c-0.74,1.23 -1.75,2.2 -3.02,2.92c-1.27,0.69 -2.7,1.04 -4.31,1.04zm0,-4.4c0.7,0 1.31,-0.15 1.84,-0.45c0.53,-0.32 0.93,-0.75 1.2,-1.3c0.3,-0.57 0.45,-1.21 0.45,-1.93c0,-0.72 -0.15,-1.35 -0.45,-1.87c-0.29,-0.55 -0.7,-0.98 -1.23,-1.27c-0.51,-0.32 -1.11,-0.48 -1.81,-0.48c-0.68,0 -1.28,0.16 -1.81,0.48c-0.53,0.29 -0.94,0.72 -1.23,1.27c-0.3,0.55 -0.45,1.18 -0.45,1.9c0,0.7 0.15,1.33 0.45,1.9c0.29,0.55 0.7,0.98 1.23,1.3c0.53,0.3 1.13,0.45 1.81,0.45z" fill="#ffffff" fill-rule="evenodd" id="svg_8"/>
  <path class="ccustom" clip-rule="evenodd" d="m137.28,30.18c-1.03,0 -1.99,-0.2 -2.85,-0.6c-0.46,-0.21 -0.87,-0.46 -1.24,-0.76l0,7.55l-4.79,0l0,-21.92l4.85,0l0,1.07c0.36,-0.29 0.75,-0.54 1.18,-0.75c0.86,-0.42 1.82,-0.63 2.85,-0.63c1.46,0 2.75,0.34 3.87,1.04c1.14,0.7 2.03,1.65 2.66,2.86c0.66,1.2 0.99,2.58 0.99,4.12c0,1.54 -0.33,2.92 -0.99,4.12c-0.63,1.21 -1.52,2.16 -2.66,2.86c-1.12,0.69 -2.41,1.04 -3.87,1.04zm-0.89,-4.37c0.7,0 1.3,-0.16 1.81,-0.48c0.53,-0.32 0.94,-0.75 1.24,-1.3c0.29,-0.55 0.44,-1.17 0.44,-1.87c0,-0.72 -0.15,-1.35 -0.44,-1.9c-0.3,-0.55 -0.71,-0.98 -1.24,-1.27c-0.51,-0.32 -1.1,-0.48 -1.77,-0.48c-0.68,0 -1.28,0.16 -1.81,0.48c-0.51,0.29 -0.91,0.72 -1.21,1.27c-0.29,0.55 -0.44,1.18 -0.44,1.9c0,0.7 0.14,1.32 0.41,1.87c0.3,0.55 0.71,0.98 1.24,1.3c0.53,0.32 1.12,0.48 1.77,0.48z" fill="#ffffff" fill-rule="evenodd" id="svg_9"/>
  <path class="ccustom" d="m149.55,29.9c0.88,0.23 1.78,0.35 2.69,0.35c1.92,0 3.45,-0.45 4.57,-1.34c1.14,-0.88 1.71,-2.08 1.71,-3.58c0,-0.97 -0.18,-1.75 -0.54,-2.35c-0.36,-0.61 -0.82,-1.1 -1.39,-1.46c-0.58,-0.36 -1.18,-0.64 -1.81,-0.85c-0.64,-0.21 -1.24,-0.39 -1.81,-0.54c-0.57,-0.15 -1.03,-0.32 -1.4,-0.51c-0.35,-0.19 -0.53,-0.44 -0.53,-0.76c0,-0.3 0.13,-0.52 0.41,-0.67c0.27,-0.16 0.68,-0.25 1.24,-0.25c0.57,0 1.15,0.12 1.74,0.35c0.61,0.23 1.16,0.63 1.65,1.2l2.76,-2.79c-0.7,-0.88 -1.61,-1.55 -2.73,-1.99c-1.1,-0.47 -2.3,-0.7 -3.61,-0.7c-1.25,0 -2.34,0.21 -3.27,0.63c-0.93,0.43 -1.65,1.01 -2.16,1.75c-0.51,0.72 -0.76,1.57 -0.76,2.57c0,0.93 0.18,1.7 0.54,2.31c0.36,0.59 0.83,1.06 1.4,1.4c0.57,0.33 1.17,0.6 1.8,0.79c0.64,0.19 1.24,0.37 1.81,0.54c0.57,0.15 1.04,0.33 1.4,0.54c0.38,0.19 0.57,0.47 0.57,0.85c0,0.3 -0.16,0.53 -0.48,0.7c-0.29,0.17 -0.73,0.25 -1.3,0.25c-0.82,0 -1.58,-0.14 -2.28,-0.44c-0.7,-0.32 -1.3,-0.75 -1.81,-1.3l-2.76,2.79c0.53,0.57 1.16,1.08 1.9,1.52c0.77,0.43 1.58,0.75 2.45,0.99z" fill="#ffffff" id="svg_10"/>
  <path class="ccustom" d="m167.37,30.21c-1.42,0 -2.68,-0.28 -3.78,-0.85c-1.07,-0.59 -1.92,-1.4 -2.53,-2.41c-0.62,-1.04 -0.92,-2.22 -0.92,-3.55l0,-8.95l4.85,0l0,8.88c0,0.53 0.08,0.99 0.25,1.37c0.19,0.38 0.47,0.67 0.83,0.88c0.36,0.22 0.79,0.32 1.3,0.32c0.72,0 1.29,-0.22 1.71,-0.67c0.42,-0.46 0.64,-1.09 0.64,-1.9l0,-8.88l4.85,0l0,8.91c0,1.36 -0.31,2.55 -0.92,3.59c-0.62,1.01 -1.46,1.82 -2.54,2.41c-1.08,0.57 -2.33,0.85 -3.74,0.85z" fill="#ffffff" id="svg_11"/>
  <path class="ccustom" d="m181.83,14.45l-4.85,0l0,15.41l4.85,0l0,-9c0,-0.53 0.11,-0.97 0.32,-1.33c0.23,-0.36 0.54,-0.64 0.92,-0.83c0.38,-0.21 0.81,-0.32 1.3,-0.32c0.7,0 1.28,0.23 1.74,0.67c0.49,0.42 0.73,1.03 0.73,1.81l0,9l4.85,0l0,-9c0,-0.53 0.11,-0.97 0.32,-1.33c0.23,-0.36 0.54,-0.64 0.92,-0.83c0.38,-0.21 0.82,-0.32 1.3,-0.32c0.7,0 1.28,0.23 1.74,0.67c0.49,0.42 0.73,1.03 0.73,1.81l0,9l4.86,0l0,-9.54c0,-1.29 -0.28,-2.39 -0.83,-3.3c-0.53,-0.93 -1.26,-1.64 -2.19,-2.12c-0.91,-0.51 -1.95,-0.76 -3.14,-0.76c-1.2,0 -2.29,0.26 -3.26,0.79c-0.63,0.33 -1.19,0.77 -1.66,1.3c-0.44,-0.55 -0.98,-1.01 -1.61,-1.37c-0.84,-0.48 -1.81,-0.72 -2.88,-0.72c-1.15,0 -2.17,0.24 -3.08,0.72c-0.4,0.21 -0.75,0.45 -1.08,0.73l0,-1.14z" fill="#ffffff" id="svg_12"/>
 </g>
</svg>